<?xml version="1.0" encoding="UTF-8" standalone="no"?>
<svg
   xmlns:dc="http://purl.org/dc/elements/1.1/"
   xmlns:cc="http://creativecommons.org/ns#"
   xmlns:rdf="http://www.w3.org/1999/02/22-rdf-syntax-ns#"
   xmlns:svg="http://www.w3.org/2000/svg"
   xmlns="http://www.w3.org/2000/svg"
   viewBox="0 0 1161.9413 413.97867"
   height="413.97867"
   width="1161.9413"
   xml:space="preserve"
   id="svg2"
   version="1.1"><metadata
     id="metadata8"><rdf:RDF><cc:Work
         rdf:about=""><dc:format>image/svg+xml</dc:format><dc:type
           rdf:resource="http://purl.org/dc/dcmitype/StillImage" /></cc:Work></rdf:RDF></metadata><defs
     id="defs6"><clipPath
       id="clipPath18"
       clipPathUnits="userSpaceOnUse"><path
         id="path16"
         d="M 0,310.484 H 871.456 V 0 H 0 Z" /></clipPath></defs><g
     transform="matrix(1.3333333,0,0,-1.3333333,0,413.97867)"
     id="g10"><g
       id="g12"><g
         clip-path="url(#clipPath18)"
         id="g14"><g
           transform="translate(303.5161,240.123)"
           id="g20"><path
             id="path22"
             style="fill:#000000;fill-opacity:1;fill-rule:nonzero;stroke:none"
             d="m 0,0 c 0,3.712 -0.768,9.088 -4.224,12.928 -3.072,3.328 -7.68,5.121 -13.825,5.121 h -13.312 v -36.098 h 13.312 c 6.145,0 10.753,1.664 13.825,4.992 C -0.768,-9.217 0,-3.84 0,0 m -33.666,31.361 h 15.617 c 12.545,0 19.841,-5.12 23.681,-9.344 5.12,-5.632 7.681,-13.185 7.681,-22.017 0,-8.833 -2.561,-16.513 -7.681,-22.017 -3.84,-4.353 -11.136,-9.473 -23.681,-9.473 H -31.361 V -63.619 H -46.21 v 94.98 z" /></g><g
           transform="translate(356.0068,221.9458)"
           id="g24"><path
             id="path26"
             style="fill:#000000;fill-opacity:1;fill-rule:nonzero;stroke:none"
             d="m 0,0 c 6.145,0 10.752,1.792 13.696,5.121 3.584,3.839 4.225,9.216 4.225,12.928 0,3.84 -0.641,9.217 -4.225,13.056 C 10.752,34.434 6.145,36.098 0,36.098 H -13.313 V 0 Z M 38.273,-45.442 H 21.505 l -23.938,32.129 h -10.88 V -45.442 H -28.161 V 49.539 H -15.617 0 c 12.545,0 19.841,-5.121 23.681,-9.473 4.992,-5.504 7.68,-13.185 7.68,-22.017 0,-8.704 -2.688,-16.385 -7.68,-21.889 -2.304,-2.56 -5.888,-5.504 -11.008,-7.296 z" /></g><g
           transform="translate(423.3975,247.0352)"
           id="g28"><path
             id="path30"
             style="fill:#000000;fill-opacity:1;fill-rule:nonzero;stroke:none"
             d="m 0,0 c -6.145,-6.144 -9.601,-14.336 -9.601,-23.041 0,-8.705 3.456,-16.897 9.601,-23.041 6.144,-6.145 14.336,-9.601 23.041,-9.601 8.704,0 16.897,3.456 23.041,9.601 6.145,6.144 9.601,14.336 9.601,23.041 0,8.705 -3.456,16.897 -9.601,23.041 C 39.938,6.145 31.745,9.601 23.041,9.601 14.336,9.601 6.144,6.145 0,0 m 4.607,-66.819 c -5.759,2.432 -10.752,5.888 -15.104,10.24 -4.352,4.352 -7.808,9.345 -10.24,15.105 -2.432,5.761 -3.712,12.033 -3.712,18.433 0,6.4 1.28,12.672 3.712,18.561 2.432,5.632 5.888,10.625 10.24,15.105 4.352,4.352 9.345,7.68 15.104,10.112 5.761,2.432 12.034,3.712 18.434,3.712 6.4,0 12.672,-1.28 18.561,-3.712 5.632,-2.432 10.625,-5.76 15.104,-10.112 4.353,-4.48 7.681,-9.473 10.112,-15.105 2.433,-5.889 3.713,-12.161 3.713,-18.561 0,-6.4 -1.28,-12.672 -3.713,-18.433 -2.431,-5.76 -5.759,-10.753 -10.112,-15.105 -4.479,-4.352 -9.472,-7.808 -15.104,-10.24 -5.889,-2.432 -12.161,-3.712 -18.561,-3.712 -6.4,0 -12.673,1.28 -18.434,3.712" /></g><g
           transform="translate(554.752,240.123)"
           id="g32"><path
             id="path34"
             style="fill:#000000;fill-opacity:1;fill-rule:nonzero;stroke:none"
             d="m 0,0 c 0,3.712 -0.769,9.088 -4.225,12.928 -3.072,3.328 -7.68,5.121 -13.824,5.121 h -13.313 v -36.098 h 13.313 c 6.144,0 10.752,1.664 13.824,4.992 C -0.769,-9.217 0,-3.84 0,0 m -33.666,31.361 h 15.617 c 12.544,0 19.841,-5.12 23.681,-9.344 5.12,-5.632 7.681,-13.185 7.681,-22.017 0,-8.833 -2.561,-16.513 -7.681,-22.017 -3.84,-4.353 -11.137,-9.473 -23.681,-9.473 h -13.313 v -32.129 h -14.849 v 94.98 z" /></g><g
           transform="translate(593.9297,232.8267)"
           id="g36"><path
             id="path38"
             style="fill:#000000;fill-opacity:1;fill-rule:nonzero;stroke:none"
             d="M 0,0 H 34.689 V -13.441 H 0 V -42.882 H 42.114 V -56.323 H -0.128 -14.849 V 38.658 H -0.128 42.114 V 25.345 L 0,25.345 Z" /></g><g
           transform="translate(677.4863,221.9458)"
           id="g40"><path
             id="path42"
             style="fill:#000000;fill-opacity:1;fill-rule:nonzero;stroke:none"
             d="m 0,0 c 6.145,0 10.753,1.792 13.697,5.121 3.584,3.839 4.224,9.216 4.224,12.928 0,3.84 -0.64,9.217 -4.224,13.056 C 10.753,34.434 6.145,36.098 0,36.098 H -13.313 V 0 Z M 38.274,-45.442 H 21.506 L -2.432,-13.313 H -13.313 V -45.442 H -28.161 V 49.539 H -15.616 0 c 12.545,0 19.842,-5.121 23.682,-9.473 4.992,-5.504 7.68,-13.185 7.68,-22.017 0,-8.704 -2.688,-16.385 -7.68,-21.889 -2.305,-2.56 -5.889,-5.504 -11.009,-7.296 z" /></g><g
           transform="translate(783.7002,258.1719)"
           id="g44"><path
             id="path46"
             style="fill:#000000;fill-opacity:1;fill-rule:nonzero;stroke:none"
             d="M 0,0 H -26.112 V -81.668 H -41.09 V 0 H -67.203 V 13.313 H 0 Z" /></g><g
           transform="translate(836.6016,226.1704)"
           id="g48"><path
             id="path50"
             style="fill:#000000;fill-opacity:1;fill-rule:nonzero;stroke:none"
             d="M 0,0 V -49.667 H -14.85 V 0 l -33.409,45.314 h 16.001 L -7.425,11.521 17.408,45.314 h 15.873 z" /></g><g
           transform="translate(316.4448,122.1719)"
           id="g52"><path
             id="path54"
             style="fill:#000000;fill-opacity:1;fill-rule:nonzero;stroke:none"
             d="M 0,0 H -26.113 V -81.668 H -41.09 V 0 H -67.203 V 13.313 H 0 Z" /></g><g
           transform="translate(361.7285,74.1699)"
           id="g56"><path
             id="path58"
             style="fill:#000000;fill-opacity:1;fill-rule:nonzero;stroke:none"
             d="M 0,0 -10.496,24.705 -20.992,0 Z M 30.722,-33.666 H 14.465 l -8.704,20.353 h -32.514 l -8.705,-20.353 h -16.384 l 41.346,94.98 z" /></g><g
           transform="translate(471.2598,40.5039)"
           id="g60"><path
             id="path62"
             style="fill:#000000;fill-opacity:1;fill-rule:nonzero;stroke:none"
             d="M 0,0 -25.346,37.123 -50.563,0 h -18.688 l 34.562,50.818 -30.082,44.162 h 18.689 L -25.346,64.516 -4.48,94.98 H 14.208 L -16.001,50.818 18.688,0 Z" /></g><g
           transform="translate(601.1768,40.5039)"
           id="g64"><path
             id="path66"
             style="fill:#b20f1a;fill-opacity:1;fill-rule:nonzero;stroke:none"
             d="m 0,0 h -39.81 -14.72 v 94.98 h 14.848 V 13.441 l 39.682,0 z" /></g><g
           transform="translate(629.1045,111.0352)"
           id="g68"><path
             id="path70"
             style="fill:#b20f1a;fill-opacity:1;fill-rule:nonzero;stroke:none"
             d="m 0,0 c -6.145,-6.145 -9.601,-14.336 -9.601,-23.041 0,-8.703 3.456,-16.897 9.601,-23.041 6.144,-6.145 14.336,-9.6 23.041,-9.6 8.704,0 16.897,3.455 23.041,9.6 6.145,6.144 9.601,14.338 9.601,23.041 0,8.705 -3.456,16.896 -9.601,23.041 C 39.938,6.145 31.745,9.602 23.041,9.602 14.336,9.602 6.144,6.145 0,0 m 4.607,-66.818 c -5.759,2.431 -10.752,5.888 -15.104,10.24 -4.352,4.351 -7.808,9.344 -10.24,15.105 -2.432,5.76 -3.712,12.032 -3.712,18.432 0,6.4 1.28,12.674 3.712,18.561 2.432,5.632 5.888,10.625 10.24,15.105 4.352,4.352 9.345,7.68 15.104,10.112 5.761,2.433 12.034,3.712 18.434,3.712 6.4,0 12.672,-1.279 18.561,-3.712 5.632,-2.432 10.625,-5.76 15.104,-10.112 4.353,-4.48 7.681,-9.473 10.112,-15.105 2.433,-5.887 3.713,-12.161 3.713,-18.561 0,-6.4 -1.28,-12.672 -3.713,-18.432 -2.431,-5.761 -5.759,-10.754 -10.112,-15.105 -4.479,-4.352 -9.472,-7.809 -15.104,-10.24 -5.889,-2.432 -12.161,-3.713 -18.561,-3.713 -6.4,0 -12.673,1.281 -18.434,3.713" /></g><g
           transform="translate(739.875,44.2168)"
           id="g72"><path
             id="path74"
             style="fill:#b20f1a;fill-opacity:1;fill-rule:nonzero;stroke:none"
             d="m 0,0 c -5.761,2.432 -10.753,5.889 -15.104,10.24 -4.353,4.352 -7.809,9.344 -10.241,15.106 -2.432,5.759 -3.713,12.031 -3.713,18.431 0,6.401 1.281,12.674 3.713,18.561 2.432,5.633 5.888,10.625 10.241,14.977 4.351,4.48 9.343,7.808 15.104,10.241 5.761,2.432 12.032,3.712 18.433,3.712 7.169,0 14.209,-1.536 20.609,-4.608 L 32.514,73.219 c -4.353,2.049 -9.089,3.201 -14.081,3.201 -8.704,0 -16.897,-3.457 -23.041,-9.602 -6.145,-6.144 -9.601,-14.336 -9.601,-23.041 0,-8.703 3.456,-16.896 9.601,-23.041 6.144,-6.144 14.337,-9.599 23.041,-9.599 5.12,0 9.984,1.152 14.464,3.455 1.281,0.512 2.433,1.281 3.457,1.92 L 44.674,4.096 C 43.01,3.072 41.346,2.049 39.554,1.279 33.025,-2.049 25.857,-3.713 18.433,-3.713 12.032,-3.713 5.761,-2.432 0,0" /></g><g
           transform="translate(849.9297,40.5039)"
           id="g76"><path
             id="path78"
             style="fill:#b20f1a;fill-opacity:1;fill-rule:nonzero;stroke:none"
             d="M 0,0 -37.634,43.01 V 0 h -14.848 v 94.98 h 14.848 V 55.811 L -7.168,94.98 H 11.521 L -23.297,49.283 18.562,0 Z" /></g><g
           transform="translate(53.7725,39.6338)"
           id="g80"><path
             id="path82"
             style="fill:#b20f1a;fill-opacity:1;fill-rule:nonzero;stroke:none"
             d="M 0,0 C 0.547,-0.164 0.994,-0.686 1.37,-1.082 1.975,-1.72 2.649,-2.3 3.321,-2.867 l 3.287,-2.778 c 0.875,-0.739 1.786,-1.402 2.69,-2.103 0.928,-0.725 1.855,-1.53 2.887,-2.1 0.221,-0.122 0.29,-0.163 0.337,-0.404 0.055,-0.276 0.613,-0.589 0.853,-0.741 0.324,-0.206 0.648,-0.413 0.973,-0.62 1.302,-0.829 2.604,-1.658 3.905,-2.488 3.057,-1.946 6.28,-3.59 9.444,-5.355 2.265,-1.265 4.755,-1.964 7.09,-3.047 0.465,-0.216 0.916,-0.629 1.402,-0.769 0.676,-0.196 1.345,-0.482 2.013,-0.708 1.603,-0.543 3.25,-1.043 4.829,-1.654 0.43,-0.167 0.692,-0.387 1.145,-0.387 h 2.246 1.734 c 0.43,0 0.859,0.491 1.29,0.604 1.338,0.352 2.659,0.847 3.987,1.269 1.581,0.502 3.183,1.092 4.587,1.986 1.082,0.688 2.488,1.126 3.657,1.664 0.423,0.193 0.841,0.409 1.272,0.584 1.371,0.409 2.514,1.242 3.733,1.958 0.818,0.48 1.658,1.06 2.537,1.394 0.993,0.376 1.755,1.02 2.672,1.531 3.002,1.672 6.023,3.567 8.776,5.643 2.189,1.651 4.272,3.53 6.404,5.263 2.609,2.121 4.973,4.383 7.43,6.668 1.131,1.052 2.141,2.187 3.157,3.349 0.978,1.117 2.083,2.162 3.011,3.309 0.796,0.984 1.689,1.884 2.482,2.878 0.902,1.132 1.768,2.266 2.607,3.446 0.864,1.215 1.862,2.317 2.848,3.432 1.227,1.389 1.882,3.123 3.067,4.519 0.54,0.636 0.869,1.336 1.221,2.084 0.525,1.113 1.361,1.998 2.015,3.027 0.612,0.963 1.058,2.072 1.64,3.067 0.807,1.379 1.448,2.871 2.29,4.215 1.042,1.664 1.523,3.513 2.494,5.191 0.914,1.579 1.447,3.267 2.127,4.96 0.481,1.199 1.094,2.309 1.5,3.538 0.36,1.089 0.643,2.213 1.061,3.289 0.495,1.27 1.12,2.494 1.516,3.801 0.745,2.46 1.442,4.943 2.184,7.407 0.441,1.465 0.772,2.868 1.136,4.357 0.45,1.84 0.419,3.767 0.84,5.623 0.234,1.032 0.41,2.068 0.697,3.09 0.349,1.249 0.291,2.524 0.42,3.804 0.309,3.041 0.721,6.064 0.944,9.115 0.462,6.313 0.604,12.732 0.354,19.06 -0.051,1.293 0.029,2.723 -0.19,3.996 -0.162,0.946 -0.333,1.854 -0.414,2.812 -0.157,1.835 -0.248,3.688 -0.513,5.511 -0.112,0.768 -0.272,1.468 -0.293,2.253 -0.033,1.258 -0.551,2.489 -0.719,3.742 -0.34,2.545 -1.173,5.024 -1.548,7.574 -0.175,1.186 -0.663,2.371 -0.893,3.564 -0.165,0.858 -0.457,1.657 -0.676,2.495 -0.36,1.369 -0.72,2.74 -1.079,4.11 -0.194,0.738 -0.905,0.892 -1.548,1.269 -1.073,0.631 -2.385,1.032 -3.374,1.773 -0.499,0.374 -1.092,0.649 -1.634,0.954 -0.601,0.34 -1.447,0.577 -1.95,1.011 -2.071,1.79 -5.249,2.798 -7.724,3.936 -2.41,1.108 -4.928,2.021 -7.411,2.966 -1.437,0.547 -2.874,1.094 -4.311,1.64 -0.393,0.15 -0.787,0.3 -1.18,0.449 -0.284,0.109 -0.519,0.342 -0.779,0.496 -0.503,0.297 -1.182,0.111 -1.734,0.281 -1.219,0.375 -2.438,0.749 -3.657,1.124 -0.378,0.116 -0.756,0.229 -1.133,0.348 -0.478,0.117 -0.892,0.398 -1.371,0.501 -0.62,0.134 -1.184,0.191 -1.774,0.436 -1.068,0.443 -2.326,0.575 -3.448,0.847 -1.03,0.25 -2.06,0.503 -3.087,0.764 -1.995,0.507 -3.886,1.127 -5.923,1.386 -0.59,0.075 -1.102,0.374 -1.697,0.436 -0.678,0.07 -1.337,0.07 -2.004,0.235 -0.661,0.163 -1.319,0.349 -1.998,0.42 -0.711,0.073 -1.391,0.025 -2.076,0.274 -1.318,0.48 -2.813,0.379 -4.199,0.435 -1.157,0.046 -2.295,0.192 -3.445,0.299 -7.917,0.734 -16.03,0.673 -23.963,0.309 -2.037,-0.093 -4.038,-0.318 -6.062,-0.547 -2.863,-0.325 -5.663,-0.398 -8.506,-0.959 -1.382,-0.273 -2.696,-0.496 -4.098,-0.617 -0.642,-0.055 -1.23,-0.302 -1.86,-0.42 -0.788,-0.149 -1.591,-0.197 -2.386,-0.294 -1.27,-0.155 -2.554,-0.53 -3.8,-0.814 -0.622,-0.142 -1.156,-0.469 -1.8,-0.552 -0.447,-0.058 -1.412,-0.01 -1.746,-0.354 -0.2,-0.206 -0.703,-0.173 -0.967,-0.208 -0.61,-0.08 -1.135,-0.408 -1.686,-0.652 -0.513,-0.227 -1.036,-0.237 -1.562,-0.386 -0.73,-0.205 -1.408,-0.544 -2.152,-0.714 -1.602,-0.366 -3.117,-1.004 -4.732,-1.404 -2.55,-0.632 -5.041,-1.731 -7.468,-2.706 -3.286,-1.321 -6.544,-2.574 -9.711,-4.178 -1.858,-0.94 -3.75,-1.771 -5.611,-2.71 -1.236,-0.623 -2.372,-1.337 -3.539,-2.076 -0.762,-0.482 -1.605,-0.74 -2.385,-1.171 -0.683,-0.378 -2.009,-0.92 -2.399,-1.665 -0.188,-0.357 -0.242,-0.788 -0.32,-1.178 -0.201,-1.005 -0.421,-2.004 -0.676,-2.997 -0.339,-1.317 -1.011,-2.544 -1.232,-3.892 -0.115,-0.517 -0.232,-1.034 -0.349,-1.551 -0.153,-0.679 -0.305,-1.357 -0.458,-2.036 -0.183,-0.815 -0.162,-1.621 -0.444,-2.412 -0.158,-0.442 -0.055,-0.925 -0.196,-1.366 -0.106,-0.332 -0.251,-0.661 -0.344,-0.996 -0.156,-0.568 -0.198,-1.175 -0.322,-1.752 -0.113,-0.526 -0.342,-1.079 -0.399,-1.61 -0.079,-0.737 -0.157,-1.474 -0.236,-2.211 -0.327,-3.057 -0.654,-6.114 -0.981,-9.171 -0.612,-5.724 -0.732,-11.556 -0.477,-17.307 0.1,-2.247 0.014,-4.567 0.277,-6.795 0.322,-2.724 0.626,-5.457 0.875,-8.189 0.114,-1.249 0.116,-2.62 0.42,-3.835 0.314,-1.253 0.355,-2.539 0.675,-3.791 0.164,-0.641 0.355,-1.276 0.458,-1.931 0.095,-0.608 0.04,-1.254 0.292,-1.827 0.424,-0.965 0.434,-2.104 0.646,-3.13 0.146,-0.704 0.426,-1.283 0.649,-1.979 0.314,-0.971 0.459,-1.991 0.782,-2.96 0.177,-0.529 0.397,-1.026 0.553,-1.567 0.186,-0.646 0.268,-1.337 0.481,-1.971 0.257,-0.764 0.314,-1.566 0.671,-2.287 0.36,-0.728 0.621,-1.515 0.892,-2.278 0.45,-1.269 0.771,-2.591 1.25,-3.845 0.947,-2.483 2.013,-4.884 3.088,-7.314 0.772,-1.746 1.466,-3.551 2.349,-5.248 0.795,-1.527 1.635,-2.987 2.374,-4.544 0.646,-1.361 1.547,-2.587 2.196,-3.957 0.693,-1.463 1.85,-2.649 2.654,-4.05 1.383,-2.41 2.727,-4.732 4.38,-6.965 1.787,-2.416 3.504,-4.819 5.453,-7.108 0.923,-1.083 2.038,-2.023 3.007,-3.08 1.184,-1.29 2.244,-2.659 3.518,-3.86 C -3.064,2.889 -1.532,1.444 0,0" /></g><g
           transform="translate(45.1226,207.0015)"
           id="g84"><path
             id="path86"
             style="fill:#b20f1a;fill-opacity:1;fill-rule:nonzero;stroke:none"
             d="m 0,0 c 0.75,0.513 1.549,0.617 2.373,0.958 1.019,0.423 2.11,0.688 3.175,0.966 1.979,0.515 3.907,1.201 5.892,1.667 2.373,0.557 4.747,1.115 7.122,1.672 0.523,0.123 0.306,3.543 0.302,4.025 -0.015,2.057 -0.099,4.112 -0.109,6.17 -0.018,4.009 0.491,7.963 1.306,11.871 0.486,2.332 1.495,4.396 2.439,6.577 0.28,0.649 0.702,2.22 1.448,2.475 0.487,0.167 0.764,1.093 1.001,1.526 0.293,0.535 0.541,1.051 0.949,1.506 0.322,0.358 0.667,0.635 0.928,1.045 0.954,1.5 2.224,2.934 3.631,4.039 2.03,1.597 4.089,3.609 6.408,4.729 1.236,0.597 2.439,1.271 3.694,1.775 1.471,0.592 2.863,1.172 4.387,1.648 1.616,0.505 3.129,0.801 4.791,1.131 1.331,0.264 2.652,0.203 4.003,0.213 1.603,0.012 3.209,-0.02 4.806,-0.177 2.042,-0.201 3.968,-0.709 5.926,-1.28 0.156,-0.046 0.387,-0.08 0.487,-0.229 0.187,-0.277 0.641,-0.24 0.978,-0.356 0.797,-0.275 1.493,-0.741 2.321,-0.93 1.548,-0.352 3.047,-1.408 4.42,-2.181 2.006,-1.129 3.919,-2.57 5.585,-4.148 0.694,-0.656 1.409,-1.29 2.077,-1.974 0.581,-0.595 1.025,-1.276 1.603,-1.846 1.282,-1.265 2.042,-2.75 3.01,-4.231 4.208,-6.441 5.255,-14.356 5.154,-21.907 -0.023,-1.747 -0.045,-3.495 -0.041,-5.242 0.002,-1.303 -0.09,-2.699 0.142,-3.988 0.146,-0.815 2.817,-0.853 3.493,-0.983 0.413,-0.08 0.727,-0.324 1.17,-0.363 0.28,-0.024 0.553,-0.059 0.824,-0.133 0.604,-0.165 1.208,-0.33 1.812,-0.495 2.671,-0.729 5.332,-1.43 8.008,-2.139 1.048,-0.278 2.13,-0.703 3.111,-1.152 0.972,-0.444 2.113,-0.684 3.137,-0.996 0.932,-0.285 1.864,-0.547 2.778,-0.897 0.824,-0.317 1.891,-0.555 2.608,-1.087 0.172,-0.127 0.136,-0.299 0.344,-0.349 0.358,-0.087 0.705,-0.247 1.043,-0.39 1.217,-0.514 2.404,-1.083 3.631,-1.575 0.589,-0.236 1.179,-0.472 1.769,-0.709 0.538,-0.215 1.104,-0.519 1.177,0.264 0.056,0.601 0.04,1.213 0.046,1.816 0.057,6.224 -0.033,12.451 -0.09,18.674 -0.023,2.481 -0.048,4.961 -0.073,7.442 -0.014,1.315 -0.056,2.621 -0.246,3.926 -0.366,2.514 -0.623,5.088 -1.236,7.552 -0.33,1.322 -0.747,2.608 -1.145,3.908 -0.241,0.787 -0.297,1.633 -0.618,2.396 -0.288,0.684 -0.554,1.386 -0.793,2.092 -0.238,0.704 -0.665,1.241 -0.911,1.952 -0.564,1.637 -1.059,3.23 -1.898,4.75 l -0.996,1.805 c -0.402,0.729 -0.606,1.522 -1.073,2.228 -1.287,1.945 -2.254,4.074 -3.696,5.899 -0.693,0.878 -1.178,1.788 -1.944,2.621 -0.705,0.767 -1.213,1.674 -1.888,2.463 -0.704,0.824 -1.531,1.579 -2.292,2.351 -1.8,1.83 -3.6,3.659 -5.4,5.488 -0.374,0.38 -0.894,0.621 -1.275,1.017 -0.586,0.613 -1.258,1.089 -1.981,1.532 -0.93,0.57 -1.671,1.368 -2.56,1.996 -0.973,0.688 -2.056,1.166 -3.009,1.873 -0.898,0.666 -1.943,1.076 -2.802,1.788 -0.965,0.8 -2.165,1.248 -3.296,1.761 -1.149,0.521 -2.223,1.171 -3.355,1.724 -0.279,0.135 -2.344,1.03 -2.412,0.966 -0.047,-0.044 -1.361,0.442 -1.594,0.553 -0.695,0.333 -1.496,0.62 -2.231,0.872 -1.879,0.644 -3.925,0.784 -5.832,1.349 -0.903,0.268 -1.617,0.623 -2.575,0.651 -1.285,0.037 -2.648,0.399 -3.917,0.626 -1.003,0.18 -1.842,0.395 -2.844,0.395 h -8.661 -4.203 c -0.549,0 -1.189,0.093 -1.731,-0.007 -1.831,-0.336 -3.668,-0.606 -5.5,-0.958 C 40.04,87.802 39.084,87.425 38.059,87.193 37.006,86.956 36.003,86.844 35,86.433 34.161,86.088 33.288,85.951 32.455,85.579 31.893,85.328 31.292,85.17 30.717,84.949 29.295,84.402 27.758,84.135 26.454,83.344 24.375,82.212 22.236,81.211 20.146,80.101 19.233,79.616 18.267,79.215 17.429,78.617 16.478,77.937 15.526,77.258 14.575,76.578 12.387,75.016 10.05,73.619 8.087,71.784 7.482,71.218 6.914,70.61 6.331,70.021 5.891,69.579 5.264,69.327 4.876,68.86 4.287,68.152 3.697,67.444 3.107,66.736 1.156,64.394 -0.795,62.052 -2.746,59.709 c -3.598,-4.319 -5.858,-9.46 -8.206,-14.527 -0.417,-0.9 -0.777,-1.741 -1.083,-2.674 -0.313,-0.958 -0.735,-1.838 -0.978,-2.828 -0.27,-1.097 -0.459,-2.219 -0.773,-3.305 -1.14,-3.947 -1.937,-8.012 -2.193,-12.12 -0.456,-7.323 -0.13,-14.655 -0.242,-21.983 -0.034,-2.233 -0.08,-4.473 0.004,-6.706 0.017,-0.451 0.239,-1.135 0.193,-1.552 -0.041,-0.376 0.937,0.3 1.044,0.37 0.718,0.47 1.668,0.509 2.424,0.966 1.696,1.026 3.799,1.6 5.653,2.245 1.336,0.464 2.613,1.073 3.954,1.53 C -2.148,-0.602 -0.865,0.096 0,0" /></g><g
           transform="translate(51.1914,121.4707)"
           id="g88"><path
             id="path90"
             style="fill:#ffffff;fill-opacity:1;fill-rule:nonzero;stroke:none"
             d="M 0,0 C 0,6.06 -0.12,6.779 -2.64,7.08 L -4.5,7.319 c -0.54,0.3 -0.54,1.62 0.12,2.04 3.96,0.3 8.64,0.54 13.859,0.54 5.1,0 8.46,-0.599 10.98,-1.559 3.66,-1.38 7.32,-4.561 7.32,-10.38 0,-9.84 -9.9,-11.279 -13.08,-11.279 -0.72,0 -1.26,0 -1.92,0.059 -0.48,0.3 -0.6,1.26 -0.179,1.62 4.979,1.56 5.999,5.1 5.999,9.54 0,4.44 -2.28,9.24 -7.68,9.24 C 8.7,7.14 8.58,6.479 8.58,4.08 v -25.319 c 0,-5.58 0.359,-6.06 3.06,-6.48 l 1.92,-0.3 c 0.659,-0.3 0.659,-1.68 0,-2.04 -3.361,0.121 -6.3,0.18 -9.18,0.18 -2.88,0 -5.76,-0.059 -9,-0.18 -0.66,0.36 -0.78,1.74 -0.12,2.04 l 1.68,0.3 c 2.7,0.48 3.06,0.9 3.06,6.48 z" /></g><g
           transform="translate(95.7109,126.6904)"
           id="g92"><path
             id="path94"
             style="fill:#ffffff;fill-opacity:1;fill-rule:nonzero;stroke:none"
             d="m 0,0 c 0,1.439 0,1.74 -1.44,1.74 h -3.72 c -4.38,0 -5.639,-2.4 -7.44,-6.78 -0.719,-0.359 -1.859,-0.24 -2.219,0.54 1.259,4.14 1.56,7.859 1.98,10.2 0.239,0.18 0.54,0.3 0.839,0.3 0.301,0 0.601,-0.061 0.84,-0.24 0.301,-1.021 0.48,-1.26 5.04,-1.26 h 22.319 c 3.96,0 4.86,0.06 5.4,1.319 0.24,0.12 0.42,0.181 0.78,0.181 0.36,0 0.78,-0.24 0.9,-0.42 -0.6,-2.04 -1.02,-6.9 -0.9,-10.32 -0.3,-0.54 -1.92,-0.659 -2.22,-0.18 -1.02,3.84 -1.86,6.66 -6.36,6.66 H 10.2 C 8.76,1.74 8.58,1.56 8.58,0 v -26.459 c 0,-5.58 0.359,-6.06 3.06,-6.42 l 2.4,-0.3 c 0.419,-0.36 0.419,-1.74 0,-2.099 -3.9,0.12 -6.9,0.179 -9.6,0.179 -2.88,0 -6,-0.059 -10.2,-0.179 -0.48,0.359 -0.48,1.739 0,2.099 l 2.7,0.3 c 2.7,0.3 3.06,0.84 3.06,6.42 z" /></g><g
           transform="translate(134.5303,101.5518)"
           id="g96"><path
             id="path98"
             style="fill:#ffffff;fill-opacity:1;fill-rule:nonzero;stroke:none"
             d="m 0,0 c 0,-2.82 0.24,-4.74 1.02,-5.7 0.78,-1.02 1.86,-1.5 6.24,-1.5 5.459,0 7.139,0.179 10.679,7.139 0.48,0.601 1.86,0.361 2.28,-0.359 -0.3,-3.12 -1.74,-8.101 -2.58,-9.72 -3.18,0.12 -8.939,0.18 -13.859,0.18 h -8.04 c -2.76,0 -5.76,-0.06 -9.479,-0.18 -0.54,0.36 -0.66,1.74 -0.18,2.1 l 2.279,0.3 c 2.701,0.36 3.06,0.84 3.06,6.42 v 22.319 c 0,5.579 -0.359,6.119 -3.06,6.48 l -1.739,0.24 c -0.6,0.359 -0.6,1.739 0.119,2.099 3.12,-0.12 6.12,-0.179 9,-0.179 2.88,0 5.88,0.059 8.88,0.179 0.48,-0.36 0.48,-1.74 0,-2.099 L 3.06,27.479 C 0.36,27.059 0,26.578 0,20.999 Z" /></g></g></g></g></svg>